<svg xmlns="http://www.w3.org/2000/svg" viewBox="0 0 64 64">
    <style>
        path {
            fill: #1e272e;
        }
        @media (prefers-color-scheme: dark) {
            path {
                fill: #ffffff;
            }
        }
    </style>
    <path d="M23.7 41.91a1 1 0 0 1-1-.71l-5.49-17.81a1 1 0 0 1 .65-1.25 1 1 0 0 1 1.26.66l4.54 14.63 4.25-14.61a1 1 0 1 1 1.92.55l-5.17 17.81a1 1 0 0 1-.95.73zm18.19 0h-3.17A5 5 0 0 1 33.77 37a1 1 0 1 1 2 0 3 3 0 0 0 2.95 2.95h3.17a3 3 0 0 0 3-2.95v-1.29a3 3 0 0 0-3-3h-3.17a5 5 0 0 1-4.95-4.95V27a5 5 0 0 1 4.95-4.95h3.63a4.5 4.5 0 0 1 4.49 4.49 1 1 0 0 1-2 0 2.5 2.5 0 0 0-2.49-2.49h-3.63A3 3 0 0 0 35.77 27v.77a3 3 0 0 0 2.95 3h3.17a5 5 0 0 1 5 4.95V37a5 5 0 0 1-5 4.91z"></path>
    <path d="M41.39 54.39H22.61a13 13 0 0 1-13-13V22.61a13 13 0 0 1 13-13h18.78a13 13 0 0 1 13 13v18.78a13 13 0 0 1-13 13ZM22.61 11.61a11 11 0 0 0-11 11v18.78a11 11 0 0 0 11 11h18.78a11 11 0 0 0 11-11V22.61a11 11 0 0 0-11-11Z"></path>
</svg>
