<svg xmlns="http://www.w3.org/2000/svg" viewBox="0 0 511.882 511.882">
  <defs/>
  <path fill="#444" d="M389.898 430.449l-86.29-57.527c-3.86-2.548-9.03-1.709-11.886 1.929l-25.125 32.302c-8.143 10.612-22.839 13.641-34.514 7.113l-4.645-2.551c-16.759-9.143-37.623-20.517-79.04-61.934-41.417-41.417-52.8-62.281-61.934-79.049l-2.56-4.645c-6.527-11.672-3.498-26.366 7.113-34.505l32.293-25.134c3.642-2.854 4.482-8.026 1.929-11.886l-57.518-86.299c-2.616-3.916-7.843-5.094-11.886-2.679l-36.105 21.65c-7.746 4.521-13.443 11.863-15.899 20.489-11.858 43.182-1.883 118.793 112.96 233.646s190.437 124.846 233.655 112.978c8.628-2.459 15.969-8.159 20.489-15.909l21.641-36.105c2.421-4.04 1.242-9.27-2.678-11.884z" class="active-path" data-old_color="#000000" data-original="#000000"/>
  <path fill="#444" d="M510.425 15.156c-.946-.946-2.234-1.471-3.572-1.456H123.767c-1.338-.015-2.626.51-3.572 1.456-.946.946-1.471 2.234-1.456 3.572V151.83l21.723 32.585c7.835 11.838 5.26 27.708-5.915 36.462l-32.265 25.134c-3.454 2.62-4.458 7.38-2.359 11.173l2.633 4.8c8.395 15.966 18.635 30.892 30.51 44.471h373.787c2.743.02 4.988-2.176 5.029-4.919V18.728c.015-1.338-.51-2.626-1.457-3.572zM250.661 181.434v-.046l-93.659 100.343c-3.444 3.694-9.23 3.896-12.923.453-3.694-3.444-3.896-9.23-.453-12.923l93.659-100.297c3.444-3.694 9.23-3.896 12.923-.453 3.694 3.444 3.897 9.23.453 12.923zm64.649-7.204c-6.589.03-13.009-2.088-18.286-6.034L144.211 52.319c-4.024-3.065-4.802-8.812-1.737-12.837 3.065-4.024 8.812-4.802 12.837-1.737l152.75 115.877c4.323 3.141 10.177 3.141 14.501 0L475.356 37.745c4.024-3.052 9.761-2.264 12.814 1.76s2.264 9.761-1.76 12.814L333.596 168.196c-5.277 3.946-11.696 6.064-18.286 6.034zm171.813 107.95c-1.773 1.656-4.132 2.539-6.557 2.455-2.425-.084-4.717-1.128-6.371-2.903l-93.65-100.343c-3.182-3.729-2.856-9.304.737-12.637 3.594-3.334 9.177-3.24 12.657.212l93.632 100.297c3.442 3.691 3.242 9.474-.448 12.919z" class="active-path" data-old_color="#000000" data-original="#000000"/>
</svg>
